<svg width="14" height="14" viewBox="0 0 14 14" fill="none" xmlns="http://www.w3.org/2000/svg">
<path d="M3.5 1V2.5M10.5 1V2.5M1 11.5V4C1 3.60218 1.15804 3.22064 1.43934 2.93934C1.72064 2.65804 2.10218 2.5 2.5 2.5H11.5C11.8978 2.5 12.2794 2.65804 12.5607 2.93934C12.842 3.22064 13 3.60218 13 4V11.5M1 11.5C1 11.8978 1.15804 12.2794 1.43934 12.5607C1.72064 12.842 2.10218 13 2.5 13H11.5C11.8978 13 12.2794 12.842 12.5607 12.5607C12.842 12.2794 13 11.8978 13 11.5M1 11.5V6.5C1 6.10218 1.15804 5.72064 1.43934 5.43934C1.72064 5.15804 2.10218 5 2.5 5H11.5C11.8978 5 12.2794 5.15804 12.5607 5.43934C12.842 5.72064 13 6.10218 13 6.5V11.5M7 7.5H7.00533V7.50533H7V7.5ZM7 9H7.00533V9.00533H7V9ZM7 10.5H7.00533V10.5053H7V10.5ZM5.5 9H5.50533V9.00533H5.5V9ZM5.5 10.5H5.50533V10.5053H5.5V10.5ZM4 9H4.00533V9.00533H4V9ZM4 10.5H4.00533V10.5053H4V10.5ZM8.5 7.5H8.50533V7.50533H8.5V7.5ZM8.5 9H8.50533V9.00533H8.5V9ZM8.5 10.5H8.50533V10.5053H8.5V10.5ZM10 7.5H10.0053V7.50533H10V7.5ZM10 9H10.0053V9.00533H10V9Z" stroke="#666666" stroke-linecap="round" stroke-linejoin="round"/>
</svg>