<svg width="16" height="16" viewBox="0 0 16 16" fill="none" xmlns="http://www.w3.org/2000/svg">
<path d="M6.37867 2H3.5C3.10218 2 2.72064 2.15804 2.43934 2.43934C2.15804 2.72064 2 3.10218 2 3.5V6.37867C2 6.77667 2.158 7.15867 2.43933 7.43933L8.82667 13.8267C9.29267 14.2927 10.0133 14.408 10.5647 14.0467C11.9524 13.1378 13.1378 11.9524 14.0467 10.5647C14.408 10.0133 14.2927 9.29267 13.8267 8.82667L7.44 2.44C7.30069 2.30051 7.13524 2.18986 6.95313 2.11436C6.77102 2.03886 6.57581 2 6.37867 2Z" stroke="#666666" stroke-linecap="round" stroke-linejoin="round"/>
<path d="M4 4H4.00533V4.00533H4V4Z" stroke="black" stroke-width="1.5" stroke-linecap="round" stroke-linejoin="round"/>
</svg>