<svg width="16" height="16" viewBox="0 0 16 16" fill="none" xmlns="http://www.w3.org/2000/svg">
<path d="M6.61667 11.2C6.04333 11.15 5.46167 11.125 4.875 11.125H4.25C3.25544 11.125 2.30161 10.7299 1.59835 10.0267C0.895088 9.32339 0.5 8.36956 0.5 7.375C0.5 6.38044 0.895088 5.42661 1.59835 4.72335C2.30161 4.02009 3.25544 3.625 4.25 3.625H4.875C5.46167 3.625 6.04333 3.6 6.61667 3.55M6.61667 11.2C6.8275 12.0017 7.10333 12.7767 7.4375 13.5192C7.64333 13.9775 7.4875 14.5275 7.05167 14.7783L6.50417 15.095C6.045 15.36 5.45417 15.1925 5.23167 14.7108C4.70358 13.5684 4.30121 12.3719 4.03167 11.1425M6.61667 11.2C6.28915 9.95141 6.1239 8.66583 6.125 7.375C6.125 6.05333 6.29583 4.77167 6.61667 3.55M6.61667 11.2C9.1846 11.4201 11.6852 12.1376 13.9792 13.3125M6.61667 3.55C9.1846 3.32993 11.6852 2.61244 13.9792 1.4375M13.9792 13.3125C13.8808 13.6292 13.775 13.9408 13.6625 14.25M13.9792 13.3125C14.4325 11.8513 14.716 10.3427 14.8242 8.81667M13.9792 1.4375C13.8814 1.12241 13.7759 0.809811 13.6625 0.5M13.9792 1.4375C14.4325 2.8987 14.716 4.40725 14.8242 5.93333M14.8242 5.93333C15.2367 6.2775 15.5 6.79583 15.5 7.375C15.5 7.95417 15.2367 8.4725 14.8242 8.81667M14.8242 5.93333C14.8925 6.89323 14.8925 7.85677 14.8242 8.81667" stroke="#666666" stroke-linecap="round" stroke-linejoin="round"/>
</svg>