<svg width="39" height="42" viewBox="0 0 39 42" fill="none" xmlns="http://www.w3.org/2000/svg">
<path d="M1 4.07464C1 1.79197 3.44533 0.346636 5.44533 1.4453L36.2187 18.3733C36.689 18.6323 37.0813 19.0127 37.3544 19.475C37.6276 19.9373 37.7717 20.4644 37.7717 21.0013C37.7717 21.5382 37.6276 22.0653 37.3544 22.5276C37.0813 22.9899 36.689 23.3703 36.2187 23.6293L5.44533 40.5546C4.98869 40.8057 4.47453 40.9335 3.95349 40.9254C3.43245 40.9173 2.9225 40.7737 2.47386 40.5086C2.02523 40.2435 1.65338 39.8661 1.39494 39.4136C1.1365 38.9611 1.00038 38.4491 1 37.928V4.07464Z" stroke="white" stroke-width="1.5" stroke-linecap="round" stroke-linejoin="round"/>
</svg>
